<mxfile host="app.diagrams.net" modified="2023-05-10T05:00:30.821Z" agent="Mozilla/5.0 (Windows NT 10.0; Win64; x64) AppleWebKit/537.36 (KHTML, like Gecko) Chrome/113.0.0.0 Safari/537.36" etag="pZXd70UKqfQyb1ewJy-9" version="21.2.9" type="github">
  <diagram name="Page-1" id="6pRoO5QwZ_KPYKNjUgPD">
    <mxGraphModel dx="1050" dy="545" grid="1" gridSize="10" guides="1" tooltips="1" connect="1" arrows="1" fold="1" page="1" pageScale="1" pageWidth="850" pageHeight="1100" math="0" shadow="0">
      <root>
        <mxCell id="0" />
        <mxCell id="1" parent="0" />
        <mxCell id="6Yc17OgeVphxbaMrsgc5-55" value="" style="rounded=0;whiteSpace=wrap;html=1;" vertex="1" parent="1">
          <mxGeometry x="80" y="10" width="800" height="670" as="geometry" />
        </mxCell>
        <mxCell id="6Yc17OgeVphxbaMrsgc5-11" style="edgeStyle=orthogonalEdgeStyle;rounded=0;orthogonalLoop=1;jettySize=auto;html=1;exitX=0.5;exitY=0.5;exitDx=0;exitDy=0;exitPerimeter=0;entryX=0;entryY=0.5;entryDx=0;entryDy=0;" edge="1" parent="1" source="6Yc17OgeVphxbaMrsgc5-2" target="6Yc17OgeVphxbaMrsgc5-8">
          <mxGeometry relative="1" as="geometry">
            <Array as="points">
              <mxPoint x="105" y="310" />
              <mxPoint x="105" y="100" />
            </Array>
          </mxGeometry>
        </mxCell>
        <mxCell id="6Yc17OgeVphxbaMrsgc5-34" style="edgeStyle=orthogonalEdgeStyle;rounded=0;orthogonalLoop=1;jettySize=auto;html=1;entryX=0;entryY=0.5;entryDx=0;entryDy=0;" edge="1" parent="1" source="6Yc17OgeVphxbaMrsgc5-2" target="6Yc17OgeVphxbaMrsgc5-12">
          <mxGeometry relative="1" as="geometry" />
        </mxCell>
        <mxCell id="6Yc17OgeVphxbaMrsgc5-35" style="edgeStyle=orthogonalEdgeStyle;rounded=0;orthogonalLoop=1;jettySize=auto;html=1;exitX=0.5;exitY=0.5;exitDx=0;exitDy=0;exitPerimeter=0;entryX=0;entryY=0.5;entryDx=0;entryDy=0;" edge="1" parent="1" source="6Yc17OgeVphxbaMrsgc5-2" target="6Yc17OgeVphxbaMrsgc5-13">
          <mxGeometry relative="1" as="geometry" />
        </mxCell>
        <mxCell id="6Yc17OgeVphxbaMrsgc5-36" style="edgeStyle=orthogonalEdgeStyle;rounded=0;orthogonalLoop=1;jettySize=auto;html=1;exitX=0.5;exitY=0.5;exitDx=0;exitDy=0;exitPerimeter=0;entryX=0;entryY=0.5;entryDx=0;entryDy=0;" edge="1" parent="1" source="6Yc17OgeVphxbaMrsgc5-2" target="6Yc17OgeVphxbaMrsgc5-14">
          <mxGeometry relative="1" as="geometry" />
        </mxCell>
        <mxCell id="6Yc17OgeVphxbaMrsgc5-37" style="edgeStyle=orthogonalEdgeStyle;rounded=0;orthogonalLoop=1;jettySize=auto;html=1;exitX=0.5;exitY=0.5;exitDx=0;exitDy=0;exitPerimeter=0;entryX=0;entryY=0.5;entryDx=0;entryDy=0;" edge="1" parent="1" source="6Yc17OgeVphxbaMrsgc5-2" target="6Yc17OgeVphxbaMrsgc5-16">
          <mxGeometry relative="1" as="geometry" />
        </mxCell>
        <mxCell id="6Yc17OgeVphxbaMrsgc5-38" style="edgeStyle=orthogonalEdgeStyle;rounded=0;orthogonalLoop=1;jettySize=auto;html=1;exitX=0.5;exitY=0.5;exitDx=0;exitDy=0;exitPerimeter=0;entryX=0;entryY=0.5;entryDx=0;entryDy=0;" edge="1" parent="1" source="6Yc17OgeVphxbaMrsgc5-2" target="6Yc17OgeVphxbaMrsgc5-17">
          <mxGeometry relative="1" as="geometry" />
        </mxCell>
        <mxCell id="6Yc17OgeVphxbaMrsgc5-39" style="edgeStyle=orthogonalEdgeStyle;rounded=0;orthogonalLoop=1;jettySize=auto;html=1;exitX=0.5;exitY=0.5;exitDx=0;exitDy=0;exitPerimeter=0;entryX=0;entryY=0.5;entryDx=0;entryDy=0;" edge="1" parent="1" source="6Yc17OgeVphxbaMrsgc5-2" target="6Yc17OgeVphxbaMrsgc5-18">
          <mxGeometry relative="1" as="geometry" />
        </mxCell>
        <mxCell id="6Yc17OgeVphxbaMrsgc5-40" style="edgeStyle=orthogonalEdgeStyle;rounded=0;orthogonalLoop=1;jettySize=auto;html=1;exitX=0.5;exitY=0.5;exitDx=0;exitDy=0;exitPerimeter=0;entryX=0;entryY=0.5;entryDx=0;entryDy=0;" edge="1" parent="1" source="6Yc17OgeVphxbaMrsgc5-2" target="6Yc17OgeVphxbaMrsgc5-28">
          <mxGeometry relative="1" as="geometry" />
        </mxCell>
        <mxCell id="6Yc17OgeVphxbaMrsgc5-46" style="edgeStyle=orthogonalEdgeStyle;rounded=0;orthogonalLoop=1;jettySize=auto;html=1;exitX=0.5;exitY=0.5;exitDx=0;exitDy=0;exitPerimeter=0;entryX=1;entryY=0.5;entryDx=0;entryDy=0;" edge="1" parent="1" source="6Yc17OgeVphxbaMrsgc5-2" target="6Yc17OgeVphxbaMrsgc5-22">
          <mxGeometry relative="1" as="geometry">
            <Array as="points">
              <mxPoint x="35" y="580" />
              <mxPoint x="830" y="580" />
              <mxPoint x="830" y="160" />
            </Array>
          </mxGeometry>
        </mxCell>
        <mxCell id="6Yc17OgeVphxbaMrsgc5-47" style="edgeStyle=orthogonalEdgeStyle;rounded=0;orthogonalLoop=1;jettySize=auto;html=1;exitX=0.5;exitY=0.5;exitDx=0;exitDy=0;exitPerimeter=0;entryX=1;entryY=0.5;entryDx=0;entryDy=0;" edge="1" parent="1" source="6Yc17OgeVphxbaMrsgc5-2" target="6Yc17OgeVphxbaMrsgc5-23">
          <mxGeometry relative="1" as="geometry">
            <Array as="points">
              <mxPoint x="35" y="580" />
              <mxPoint x="830" y="580" />
              <mxPoint x="830" y="220" />
            </Array>
          </mxGeometry>
        </mxCell>
        <mxCell id="6Yc17OgeVphxbaMrsgc5-48" style="edgeStyle=orthogonalEdgeStyle;rounded=0;orthogonalLoop=1;jettySize=auto;html=1;exitX=0.5;exitY=0.5;exitDx=0;exitDy=0;exitPerimeter=0;entryX=1;entryY=0.5;entryDx=0;entryDy=0;" edge="1" parent="1" source="6Yc17OgeVphxbaMrsgc5-2" target="6Yc17OgeVphxbaMrsgc5-32">
          <mxGeometry relative="1" as="geometry">
            <Array as="points">
              <mxPoint x="35" y="580" />
              <mxPoint x="830" y="580" />
              <mxPoint x="830" y="520" />
            </Array>
          </mxGeometry>
        </mxCell>
        <mxCell id="6Yc17OgeVphxbaMrsgc5-49" style="edgeStyle=orthogonalEdgeStyle;rounded=0;orthogonalLoop=1;jettySize=auto;html=1;exitX=0.5;exitY=0.5;exitDx=0;exitDy=0;exitPerimeter=0;entryX=1;entryY=0.5;entryDx=0;entryDy=0;" edge="1" parent="1" source="6Yc17OgeVphxbaMrsgc5-2" target="6Yc17OgeVphxbaMrsgc5-31">
          <mxGeometry relative="1" as="geometry">
            <Array as="points">
              <mxPoint x="35" y="580" />
              <mxPoint x="830" y="580" />
              <mxPoint x="830" y="460" />
            </Array>
          </mxGeometry>
        </mxCell>
        <mxCell id="6Yc17OgeVphxbaMrsgc5-50" style="edgeStyle=orthogonalEdgeStyle;rounded=0;orthogonalLoop=1;jettySize=auto;html=1;exitX=0.5;exitY=0.5;exitDx=0;exitDy=0;exitPerimeter=0;entryX=1;entryY=0.5;entryDx=0;entryDy=0;" edge="1" parent="1" source="6Yc17OgeVphxbaMrsgc5-2" target="6Yc17OgeVphxbaMrsgc5-30">
          <mxGeometry relative="1" as="geometry">
            <Array as="points">
              <mxPoint x="35" y="580" />
              <mxPoint x="830" y="580" />
              <mxPoint x="830" y="400" />
            </Array>
          </mxGeometry>
        </mxCell>
        <mxCell id="6Yc17OgeVphxbaMrsgc5-51" style="edgeStyle=orthogonalEdgeStyle;rounded=0;orthogonalLoop=1;jettySize=auto;html=1;exitX=0.5;exitY=0.5;exitDx=0;exitDy=0;exitPerimeter=0;entryX=1;entryY=0.5;entryDx=0;entryDy=0;" edge="1" parent="1" source="6Yc17OgeVphxbaMrsgc5-2" target="6Yc17OgeVphxbaMrsgc5-29">
          <mxGeometry relative="1" as="geometry">
            <Array as="points">
              <mxPoint x="35" y="580" />
              <mxPoint x="830" y="580" />
              <mxPoint x="830" y="340" />
            </Array>
          </mxGeometry>
        </mxCell>
        <mxCell id="6Yc17OgeVphxbaMrsgc5-52" style="edgeStyle=orthogonalEdgeStyle;rounded=0;orthogonalLoop=1;jettySize=auto;html=1;exitX=0.5;exitY=0.5;exitDx=0;exitDy=0;exitPerimeter=0;entryX=1;entryY=0.5;entryDx=0;entryDy=0;" edge="1" parent="1" source="6Yc17OgeVphxbaMrsgc5-2" target="6Yc17OgeVphxbaMrsgc5-25">
          <mxGeometry relative="1" as="geometry">
            <Array as="points">
              <mxPoint x="35" y="580" />
              <mxPoint x="830" y="580" />
              <mxPoint x="830" y="280" />
            </Array>
          </mxGeometry>
        </mxCell>
        <mxCell id="6Yc17OgeVphxbaMrsgc5-54" style="edgeStyle=orthogonalEdgeStyle;rounded=0;orthogonalLoop=1;jettySize=auto;html=1;exitX=0.5;exitY=0.5;exitDx=0;exitDy=0;exitPerimeter=0;entryX=1;entryY=0.5;entryDx=0;entryDy=0;" edge="1" parent="1" source="6Yc17OgeVphxbaMrsgc5-2" target="6Yc17OgeVphxbaMrsgc5-20">
          <mxGeometry relative="1" as="geometry">
            <Array as="points">
              <mxPoint x="35" y="580" />
              <mxPoint x="830" y="580" />
              <mxPoint x="830" y="100" />
            </Array>
          </mxGeometry>
        </mxCell>
        <mxCell id="6Yc17OgeVphxbaMrsgc5-2" value="&lt;b&gt;Patient&lt;/b&gt;" style="shape=umlActor;verticalLabelPosition=bottom;verticalAlign=top;html=1;outlineConnect=0;" vertex="1" parent="1">
          <mxGeometry x="20" y="260" width="30" height="100" as="geometry" />
        </mxCell>
        <mxCell id="6Yc17OgeVphxbaMrsgc5-8" value="SignUpAsPatient" style="rounded=0;whiteSpace=wrap;html=1;" vertex="1" parent="1">
          <mxGeometry x="160" y="80" width="160" height="40" as="geometry" />
        </mxCell>
        <mxCell id="6Yc17OgeVphxbaMrsgc5-12" value="getPatientInfo" style="rounded=0;whiteSpace=wrap;html=1;" vertex="1" parent="1">
          <mxGeometry x="160" y="140" width="160" height="40" as="geometry" />
        </mxCell>
        <mxCell id="6Yc17OgeVphxbaMrsgc5-13" value="getInfoOfPatients" style="whiteSpace=wrap;html=1;" vertex="1" parent="1">
          <mxGeometry x="160" y="200" width="160" height="40" as="geometry" />
        </mxCell>
        <mxCell id="6Yc17OgeVphxbaMrsgc5-14" value="getPatientsWithSpecifiedBloodGroup" style="whiteSpace=wrap;html=1;" vertex="1" parent="1">
          <mxGeometry x="160" y="260" width="230" height="40" as="geometry" />
        </mxCell>
        <mxCell id="6Yc17OgeVphxbaMrsgc5-16" value="permitAccessToDoctor" style="whiteSpace=wrap;html=1;" vertex="1" parent="1">
          <mxGeometry x="160" y="320" width="150" height="40" as="geometry" />
        </mxCell>
        <mxCell id="6Yc17OgeVphxbaMrsgc5-17" value="revokeAccessFromDoctor" style="whiteSpace=wrap;html=1;" vertex="1" parent="1">
          <mxGeometry x="160" y="380" width="160" height="40" as="geometry" />
        </mxCell>
        <mxCell id="6Yc17OgeVphxbaMrsgc5-18" value="getAllMedicalHistory" style="whiteSpace=wrap;html=1;" vertex="1" parent="1">
          <mxGeometry x="160" y="440" width="160" height="40" as="geometry" />
        </mxCell>
        <mxCell id="6Yc17OgeVphxbaMrsgc5-20" value="getDoctorsWithASpecialization" style="whiteSpace=wrap;html=1;" vertex="1" parent="1">
          <mxGeometry x="520" y="80" width="180" height="40" as="geometry" />
        </mxCell>
        <mxCell id="6Yc17OgeVphxbaMrsgc5-22" value="getDoctorWithAQualification" style="whiteSpace=wrap;html=1;" vertex="1" parent="1">
          <mxGeometry x="520" y="140" width="180" height="40" as="geometry" />
        </mxCell>
        <mxCell id="6Yc17OgeVphxbaMrsgc5-23" value="getDoctorInfo" style="whiteSpace=wrap;html=1;" vertex="1" parent="1">
          <mxGeometry x="520" y="200" width="140" height="40" as="geometry" />
        </mxCell>
        <mxCell id="6Yc17OgeVphxbaMrsgc5-24" style="edgeStyle=orthogonalEdgeStyle;rounded=0;orthogonalLoop=1;jettySize=auto;html=1;exitX=0.5;exitY=1;exitDx=0;exitDy=0;" edge="1" parent="1" source="6Yc17OgeVphxbaMrsgc5-20" target="6Yc17OgeVphxbaMrsgc5-20">
          <mxGeometry relative="1" as="geometry" />
        </mxCell>
        <mxCell id="6Yc17OgeVphxbaMrsgc5-25" value="getInfoOfDoctors" style="whiteSpace=wrap;html=1;" vertex="1" parent="1">
          <mxGeometry x="520" y="260" width="140" height="40" as="geometry" />
        </mxCell>
        <mxCell id="6Yc17OgeVphxbaMrsgc5-28" value="fetchHospitalNearMe" style="whiteSpace=wrap;html=1;" vertex="1" parent="1">
          <mxGeometry x="160" y="500" width="160" height="40" as="geometry" />
        </mxCell>
        <mxCell id="6Yc17OgeVphxbaMrsgc5-29" value="getHospitalInfo" style="whiteSpace=wrap;html=1;" vertex="1" parent="1">
          <mxGeometry x="520" y="320" width="140" height="40" as="geometry" />
        </mxCell>
        <mxCell id="6Yc17OgeVphxbaMrsgc5-30" value="getInfoOfHospitals" style="whiteSpace=wrap;html=1;" vertex="1" parent="1">
          <mxGeometry x="520" y="380" width="140" height="40" as="geometry" />
        </mxCell>
        <mxCell id="6Yc17OgeVphxbaMrsgc5-31" value="getDoctorWithSpecializationInHospital" style="whiteSpace=wrap;html=1;" vertex="1" parent="1">
          <mxGeometry x="520" y="440" width="230" height="40" as="geometry" />
        </mxCell>
        <mxCell id="6Yc17OgeVphxbaMrsgc5-32" value="getDetailsOfDoctorsCurrentWorkingHospitals" style="whiteSpace=wrap;html=1;" vertex="1" parent="1">
          <mxGeometry x="520" y="500" width="250" height="40" as="geometry" />
        </mxCell>
        <mxCell id="6Yc17OgeVphxbaMrsgc5-57" value="&lt;b&gt;Healthcare system&lt;/b&gt;" style="text;html=1;align=center;verticalAlign=middle;resizable=0;points=[];autosize=1;strokeColor=none;fillColor=none;" vertex="1" parent="1">
          <mxGeometry x="415" y="640" width="130" height="30" as="geometry" />
        </mxCell>
      </root>
    </mxGraphModel>
  </diagram>
</mxfile>
